<?xml version="1.0" encoding="UTF-8" standalone="no"?>
<svg width="172px" height="34px" viewBox="0 0 172 34" version="1.1" xmlns="http://www.w3.org/2000/svg" xmlns:xlink="http://www.w3.org/1999/xlink" xmlns:sketch="http://www.bohemiancoding.com/sketch/ns">
    <!-- Generator: Sketch 3.1.1 (8761) - http://www.bohemiancoding.com/sketch -->
    <title>logo 2</title>
    <desc>Created with Sketch.</desc>
    <defs></defs>
    <g id="Home" stroke="none" stroke-width="1" fill="none" fill-rule="evenodd" sketch:type="MSPage">
        <g id="Homepage-3" sketch:type="MSArtboardGroup" transform="translate(-48.000000, -23.000000)" fill="#FFFFFF">
            <g id="marketing-nav-2" sketch:type="MSLayerGroup" transform="translate(49.000000, 23.000000)">
                <g id="logo-2" sketch:type="MSShapeGroup">
                    <path d="M48.39345,20.3538496 C48.8946167,21.3693293 49.796975,21.8769383 50.7995667,21.8769383 C51.8021583,21.8769383 52.6042833,21.1662857 52.6042833,20.2520662 C52.6042833,19.7444571 52.4038167,19.3381083 52.0028833,19.1350647 C51.8021583,18.9320211 51.401225,18.8304992 50.3986333,18.4241504 C48.3931917,17.7134977 47.591325,16.7995398 47.591325,15.2761895 C47.591325,13.3467519 49.0950833,11.9249233 51.100525,11.9249233 C52.3035833,11.9249233 53.5066417,12.3310105 54.409,13.2449684 L53.2059417,14.7683188 C52.6042833,14.159188 52.1031167,13.8543609 51.401225,13.8543609 C50.4988667,13.8543609 49.796975,14.4637534 49.796975,15.1746677 C49.796975,15.7837985 50.1979083,16.0886256 51.5014583,16.5962346 C52.8050083,17.1041053 53.306175,17.3071489 53.8076,17.7134977 C54.5094917,18.3226286 54.8101917,19.1350647 54.8101917,20.1505444 C54.8101917,22.384809 53.2059417,23.9081594 50.8998,23.9081594 C49.29555,23.9081594 47.9922583,23.1972451 46.9896667,21.6738947 L48.39345,20.3538496" id="Fill-7"></path>
                    <path d="M65.0370917,23.2987669 C64.0345,23.8066376 63.232375,24.0096812 62.2297833,24.0096812 C58.92105,24.0096812 56.213975,21.3693293 56.213975,18.0180632 C56.213975,14.666797 58.92105,11.9249233 62.2297833,11.9249233 C63.232375,11.9249233 64.0345,12.1279669 65.0370917,12.6358376 L65.0370917,15.2761895 C64.1347333,14.3622316 63.3326083,13.9558827 62.2297833,13.9558827 C60.1241083,13.9558827 58.5198583,15.6822767 58.5198583,17.9165414 C58.5198583,20.1505444 60.1241083,21.8769383 62.3300167,21.8769383 C63.4328417,21.8769383 64.1347333,21.4708511 65.0370917,20.658415 L65.0370917,23.2987669" id="Fill-8"></path>
                    <path d="M67.042275,12.2294887 L70.3510083,12.2294887 C71.6543,12.2294887 72.65715,12.5343158 73.25855,13.0419248 C73.9604417,13.6513173 74.3616333,14.5652752 74.3616333,15.6822767 C74.3616333,16.698018 73.9604417,17.7134977 73.3587833,18.2211068 C72.95785,18.6274556 72.5569167,18.8304992 71.7547917,18.9320211 L75.364225,23.8066376 L72.65715,23.8066376 L69.5488833,19.1350647 L69.2481833,19.1350647 L69.2481833,23.8066376 L67.042275,23.8066376 L67.042275,12.2294887 L67.042275,12.2294887 Z M69.9498167,17.5101925 C71.3536,17.5101925 72.155725,16.9010617 72.155725,15.7837985 C72.155725,14.666797 71.4538333,14.0574045 70.0503083,14.0574045 L69.3484167,14.0574045 L69.3484167,17.5101925 L69.9498167,17.5101925 L69.9498167,17.5101925 Z" id="Fill-9"></path>
                    <path d="M76.8679833,12.2294887 L83.18475,12.2294887 L83.18475,14.159188 L79.0738917,14.159188 L79.0738917,16.6977564 L82.9842833,16.6977564 L82.9842833,18.6274556 L79.0738917,18.6274556 L79.0738917,21.7754165 L83.18475,21.7754165 L83.18475,23.7051158 L76.8679833,23.7051158 L76.8679833,12.2294887" id="Fill-10"></path>
                    <path d="M85.2901667,12.2294887 L91.6069333,12.2294887 L91.6069333,14.159188 L87.496075,14.159188 L87.496075,16.6977564 L91.4062083,16.6977564 L91.4062083,18.6274556 L87.496075,18.6274556 L87.496075,21.7754165 L91.6069333,21.7754165 L91.6069333,23.7051158 L85.2901667,23.7051158 L85.2901667,12.2294887" id="Fill-11"></path>
                    <path d="M93.71235,11.9249233 L95.3166,11.9249233 L102.234767,19.9475008 L102.234767,12.2294887 L104.440417,12.2294887 L104.440417,23.9081594 L102.836167,23.9081594 L95.918,15.8853203 L95.918,23.7051158 L93.71235,23.7051158 L93.71235,11.9249233" id="Fill-12"></path>
                    <path d="M107.047258,12.2294887 L109.854567,12.2294887 C111.158117,12.2294887 112.060475,12.432794 112.662133,12.940403 C113.263533,13.4482737 113.664725,14.3622316 113.664725,15.2761895 C113.664725,15.8853203 113.464258,16.4947128 113.263533,16.9010617 C113.063067,17.2056271 112.8626,17.3071489 112.461667,17.6119759 C113.263533,17.8150195 113.564492,17.9165414 113.965425,18.3226286 C114.46685,18.8304992 114.76755,19.6429353 114.76755,20.4553714 C114.76755,21.3693293 114.366617,22.2832872 113.764958,22.7908962 C113.063067,23.4002887 112.160708,23.7051158 110.95765,23.7051158 L107.14775,23.7051158 L107.14775,12.2294887 L107.047258,12.2294887 L107.047258,12.2294887 Z M109.854567,17.0025835 C110.95765,17.0025835 111.559308,16.4947128 111.559308,15.4792331 C111.559308,14.4637534 110.95765,13.9558827 109.854567,13.9558827 L109.152933,13.9558827 L109.152933,16.9010617 L109.854567,16.9010617 L109.854567,17.0025835 L109.854567,17.0025835 Z M110.155525,21.8769383 C110.857417,21.8769383 111.358583,21.7754165 111.659542,21.5723729 C112.060475,21.3693293 112.361175,20.8614586 112.361175,20.2520662 C112.361175,19.7444571 112.160708,19.2365865 111.659542,18.9320211 C111.25835,18.6274556 110.95765,18.6274556 109.955058,18.6274556 L109.152933,18.6274556 L109.152933,21.7754165 L110.155525,21.7754165 L110.155525,21.8769383 L110.155525,21.8769383 Z" id="Fill-13"></path>
                    <path d="M116.772992,12.2294887 L122.989267,12.2294887 L122.989267,14.159188 L118.978642,14.159188 L118.978642,16.6977564 L122.889033,16.6977564 L122.889033,18.6274556 L118.978642,18.6274556 L118.978642,21.7754165 L122.989267,21.7754165 L122.989267,23.7051158 L116.772992,23.7051158 L116.772992,12.2294887" id="Fill-14"></path>
                    <path d="M129.105308,11.9249233 L130.809792,11.9249233 L135.622283,23.7051158 L133.215908,23.7051158 L132.213317,21.2678075 L127.601292,21.2678075 L126.5987,23.7051158 L124.292558,23.7051158 L129.105308,11.9249233 L129.105308,11.9249233 Z M131.511683,19.4396301 L129.907433,15.2761895 L128.303183,19.4396301 L131.511683,19.4396301 L131.511683,19.4396301 Z" id="Fill-15"></path>
                    <path d="M144.545892,23.2987669 C143.5433,23.8066376 142.741175,24.0096812 141.738325,24.0096812 C138.42985,24.0096812 135.722775,21.3693293 135.722775,18.0180632 C135.722775,14.666797 138.42985,11.9249233 141.738325,11.9249233 C142.741175,11.9249233 143.5433,12.1279669 144.545892,12.6358376 L144.545892,15.2761895 C143.643533,14.3622316 142.841408,13.9558827 141.738325,13.9558827 C139.632908,13.9558827 138.028658,15.6822767 138.028658,17.9165414 C138.028658,20.1505444 139.632908,21.8769383 141.838817,21.8769383 C142.941642,21.8769383 143.643533,21.4708511 144.545892,20.658415 L144.545892,23.2987669" id="Fill-16"></path>
                    <path d="M152.165692,11.9249233 C155.574658,11.9249233 158.1815,14.5652752 158.1815,17.9165414 C158.1815,21.2678075 155.474425,23.9081594 152.065458,23.9081594 C148.656492,23.9081594 146.04965,21.2678075 146.04965,17.8150195 C146.04965,14.5652752 148.756983,11.9249233 152.165692,11.9249233 M152.165692,21.8769383 C154.271367,21.8769383 155.97585,20.0490226 155.97585,17.9165414 C155.97585,15.6822767 154.271367,13.9558827 152.165692,13.9558827 C150.060275,13.9558827 148.355792,15.7840602 148.355792,17.9165414 C148.355792,20.1505444 150.060275,21.8769383 152.165692,21.8769383" id="Fill-17"></path>
                    <path d="M160.287175,11.9249233 L161.791192,11.9249233 L168.709358,19.9475008 L168.709358,12.2294887 L170.915008,12.2294887 L170.915008,23.9081594 L169.410992,23.9081594 L162.493083,15.8853203 L162.493083,23.7051158 L160.287175,23.7051158 L160.287175,11.9249233" id="Fill-18"></path>
                    <g id="Imported-Layers">
                        <path d="M30.9834536,25.0688736 C30.5966495,26.1874023 29.4835052,27.4552644 28.357732,27.7542989 C24.9641753,28.6171954 21.5706186,29.0574713 18.1770619,29.0574713 L18.176701,29.0574713 C14.7831443,29.0574713 11.3895876,28.6171954 7.9956701,27.7542989 C6.86989691,27.4552644 5.7571134,26.1918161 5.37030928,25.0732874 C3.85845361,20.7032644 4.10020619,16.1129195 5.37030928,11.9172414 C5.71345361,10.7843678 6.86989691,9.53857471 7.9956701,9.23990805 C9.61865979,8.82721839 11.2412887,8.51531034 12.8642784,8.30013793 C10.822732,10.0318161 9.52304124,12.6403678 9.52304124,15.5593563 C9.52304124,20.7731494 13.6692784,24.9997241 18.7839691,24.9997241 C23.8990206,24.9997241 28.0452577,20.7727816 28.0452577,15.5589885 C28.0452577,14.1425287 27.7371134,12.8 27.1890206,11.5942989 C27.2370103,11.8436782 27.2633505,12.1007816 27.2633505,12.3641379 C27.2633505,14.5611034 25.5162371,16.342069 23.3613918,16.342069 C21.2061856,16.342069 19.4590722,14.5611034 19.4590722,12.3641379 C19.4590722,10.1675402 21.2061856,8.38657471 23.3613918,8.38657471 C24.1299485,8.38657471 24.9497423,8.52156322 24.9497423,8.52156322 C26.0856186,8.71356322 27.2218557,8.95006897 28.357732,9.2388046 C29.483866,9.53747126 30.6403093,10.7821609 30.9834536,11.9154023 C32.2535567,16.1107126 32.4953093,20.6992184 30.9834536,25.0688736" id="Fill-2"></path>
                        <path d="M30.3796578,3.76059668 C31.3971073,4.0306777 32.6045592,5.26172616 32.8745779,6.31895874 C34.9092845,14.6314005 34.9092845,19.0390118 32.8721513,27.3615407 C32.6049069,28.4088363 31.3973863,29.6396533 30.3696452,29.9124103 C26.3003222,30.9473903 22.224687,31.4658303 18.1501932,31.4658303 C14.0755582,31.4658303 9.99954724,30.9473545 5.9207499,29.9098138 C4.90320814,29.6397086 3.69539795,28.4085963 3.42540863,27.3517725 C1.39071852,19.0390118 1.39071852,14.6314005 3.42784926,6.30926552 C3.69541127,5.2618537 4.90315244,4.0307113 5.93074116,3.75799475 C9.99876467,2.72324966 14.0747741,2.20496552 18.1501932,2.20496552 L18.1501932,0.204965517 C13.9071816,0.204965517 9.66562471,0.744299818 5.42770315,1.82231756 C3.68606728,2.28448327 1.93600845,4.06845128 1.48762793,5.82404256 C-0.628398806,14.4682754 -0.628398806,19.2021225 1.48520126,27.8370497 C1.93606427,29.6020752 3.68617479,31.3859503 5.41771189,31.845491 C9.66637813,32.9262969 13.9079337,33.4658303 18.1501932,33.4658303 C22.3923064,33.4658303 26.6334708,32.9263342 30.8726619,31.8480929 C32.6145219,31.385868 34.3645384,29.6020887 34.8124384,27.8465053 C36.9284019,19.2021225 36.9284019,14.4682754 34.8147993,5.83373577 C34.3639772,4.06838319 32.6142539,2.28446596 30.8826745,1.82491406 C26.6342245,0.744262541 22.3930585,0.204965517 18.1501932,0.204965517 L18.1501932,2.20496552 C22.2254711,2.20496552 26.301105,2.72321386 30.3796578,3.76059668 Z" id="Fill-1"></path>
                    </g>
                </g>
            </g>
        </g>
    </g>
</svg>