<?xml version="1.0" encoding="UTF-8" standalone="no"?>
<svg width="170px" height="128px" viewBox="0 0 170 128" version="1.1" xmlns="http://www.w3.org/2000/svg" xmlns:xlink="http://www.w3.org/1999/xlink" xmlns:sketch="http://www.bohemiancoding.com/sketch/ns">
    <!-- Generator: Sketch 3.1.1 (8761) - http://www.bohemiancoding.com/sketch -->
    <title>Group</title>
    <desc>Created with Sketch.</desc>
    <defs></defs>
    <g id="Features" stroke="none" stroke-width="1" fill="none" fill-rule="evenodd" sketch:type="MSPage">
        <g sketch:type="MSArtboardGroup" transform="translate(-543.000000, -414.000000)" id="Group">
            <g sketch:type="MSLayerGroup" transform="translate(543.000000, 414.000000)">
                <path d="M0.14541854,4.99366554 L0.14541854,111.222551 C0.14541854,113.980476 1.96102257,114.923061 4.2189917,113.314833 L21.0158466,101.351351 L144.046166,101.351351 C146.807174,101.351351 149.045412,99.1163648 149.045412,96.359892 L149.045412,4.99145933 C149.045412,2.23475246 146.810344,0 144.048666,0 L5.1421651,0 C2.38253818,0 0.14541854,2.24350641 0.14541854,4.99366554 Z M144.048666,3 C145.153302,3 146.045412,3.89141959 146.045412,4.99145933 L146.045412,96.359892 C146.045412,97.4585654 145.151263,98.3513514 144.046166,98.3513514 L21.0158466,98.3513514 L20.0566878,98.3513514 L19.275435,98.907795 L2.47858012,110.871276 C2.25447913,111.030891 2.10435645,111.100237 2.05812736,111.109212 C2.21047858,111.079633 2.45511949,111.10807 2.70971158,111.239269 C2.96442543,111.37053 3.12978328,111.553491 3.194435,111.695406 C3.17559987,111.654062 3.14541854,111.494056 3.14541854,111.222551 L3.14541854,4.99366554 C3.14541854,3.89737169 4.04238033,3 5.1421651,3 L144.048666,3 Z" id="Rectangle-25" fill="#DCDFE8" sketch:type="MSShapeGroup"></path>
                <path d="M124.090909,104.719902 C124.090909,92.2222542 134.222254,82.0909091 146.719902,82.0909091 C159.217549,82.0909091 169.348894,92.2222542 169.348894,104.719902 C169.348894,117.217549 159.217549,127.348894 146.719902,127.348894 C134.222254,127.348894 124.090909,117.217549 124.090909,104.719902 Z" id="Path-3" fill="#FFFFFF" sketch:type="MSShapeGroup"></path>
                <g id="Oval-10-+-Oval-10-+-Line-+-Oval-10-+-Line-5" transform="translate(127.983256, 85.810811)" fill="#A7B0C5" sketch:type="MSShapeGroup">
                    <path d="M39.1891892,19.5945946 C39.1891892,8.77279882 30.4163904,0 19.5945946,0 C8.77279882,0 0,8.77279882 0,19.5945946 C0,30.4163904 8.77279882,39.1891892 19.5945946,39.1891892 C30.4163904,39.1891892 39.1891892,30.4163904 39.1891892,19.5945946 Z M3,19.5945946 C3,10.4296531 10.4296531,3 19.5945946,3 C28.7595361,3 36.1891892,10.4296531 36.1891892,19.5945946 C36.1891892,28.7595361 28.7595361,36.1891892 19.5945946,36.1891892 C10.4296531,36.1891892 3,28.7595361 3,19.5945946 Z" id="Oval-10"></path>
                </g>
                <text id="!-3" sketch:type="MSTextLayer" font-family="Fira Sans" font-size="24" font-weight="420" fill="#A7B0C5">
                    <tspan x="144.199473" y="113.513514">!</tspan>
                </text>
                <path d="M120.902377,37.0337838 C122.283089,37.0337838 123.402377,35.9144957 123.402377,34.5337838 C123.402377,33.1530719 122.283089,32.0337838 120.902377,32.0337838 L24.8075807,32.0337838 C23.4268688,32.0337838 22.3075807,33.1530719 22.3075807,34.5337838 C22.3075807,35.9144957 23.4268688,37.0337838 24.8075807,37.0337838 L120.902377,37.0337838 Z" id="Line-8" fill="#A7B0C5" sketch:type="MSShapeGroup"></path>
                <path d="M119.685215,53.0337838 C121.065927,53.0337838 122.185215,51.9144957 122.185215,50.5337838 C122.185215,49.1530719 121.065927,48.0337838 119.685215,48.0337838 L24.8075807,48.0337838 C23.4268688,48.0337838 22.3075807,49.1530719 22.3075807,50.5337838 C22.3075807,51.9144957 23.4268688,53.0337838 24.8075807,53.0337838 L119.685215,53.0337838 Z" id="Line-10" fill="#A7B0C5" sketch:type="MSShapeGroup"></path>
                <path d="M91.6434202,70 C93.0241321,70 94.1434202,68.8807119 94.1434202,67.5 C94.1434202,66.1192881 93.0241321,65 91.6434202,65 L24.8075807,65 C23.4268688,65 22.3075807,66.1192881 22.3075807,67.5 C22.3075807,68.8807119 23.4268688,70 24.8075807,70 L91.6434202,70 Z" id="Line-12" fill="#A7B0C5" sketch:type="MSShapeGroup"></path>
            </g>
        </g>
    </g>
</svg>