<?xml version="1.0" encoding="UTF-8" standalone="no"?>
<svg width="130px" height="138px" viewBox="0 0 130 138" version="1.1" xmlns="http://www.w3.org/2000/svg" xmlns:xlink="http://www.w3.org/1999/xlink" xmlns:sketch="http://www.bohemiancoding.com/sketch/ns">
    <!-- Generator: Sketch 3.1.1 (8761) - http://www.bohemiancoding.com/sketch -->
    <title>import</title>
    <desc>Created with Sketch.</desc>
    <defs>
        <path id="path-1" d="M5.99392199,3 C4.34042453,3 3,4.34925088 3,6.00058135 L3,121.999419 C3,123.656594 4.34209558,125 5.99446106,125 L90.0055389,125 C91.6593341,125 93,123.658431 93,122.003983 L93,27.7070312 C93,23.1382146 71.7088776,3 66.5605469,3 L5.99392199,3 Z"></path>
        <path id="path-3" d="M5.99392199,3 C4.34042453,3 3,4.34925088 3,6.00058135 L3,121.999419 C3,123.656594 4.34209558,125 5.99446106,125 L90.0055389,125 C91.6593341,125 93,123.658431 93,122.003983 L93,27.7070312 C93,23.1382146 71.7088776,3 66.5605469,3 L5.99392199,3 Z"></path>
        <path d="M111,85 L89.991617,85 C88.8978404,85 88,84.1072288 88,83.0059397 L88,70.9940603 C88,69.8945138 88.8916773,69 89.991617,69 L111,69 L111,65.0000191 C111,63.3473186 111.984773,62.9140886 113.199552,64.041674 L125.537691,75.4942142 C126.342952,76.2416756 126.351658,77.4653982 125.551887,78.2226028 L113.174483,89.9412491 C111.976786,91.0752008 111,90.6568457 111,88.9999809 L111,85 Z" id="path-5"></path>
    </defs>
    <g id="Features" stroke="none" stroke-width="1" fill="none" fill-rule="evenodd" sketch:type="MSPage">
        <g sketch:type="MSArtboardGroup" transform="translate(-321.000000, -403.000000)" id="import">
            <g sketch:type="MSLayerGroup" transform="translate(321.000000, 403.000000)">
                <g id="Rectangle-19-+-Rectangle-19" transform="translate(10.000000, 0.000000)">
                    <path d="M5.99392199,4.4408921e-16 C2.68318192,0 0,2.69276836 0,6.00058135 L0,121.999419 C0,125.311805 2.68359671,128 5.99446106,128 L90.0055389,128 C93.3164982,128 96,125.314976 96,122.003983 L96,27.7070312 C96,24.3186538 91.0925454,18.3383295 83.7651047,11.4538351 C76.4794422,4.6085934 70.0816435,0 66.5605469,0 L5.99392199,4.4408921e-16 Z M5.99392199,3 C4.34042453,3 3,4.34925088 3,6.00058135 L3,121.999419 C3,123.656594 4.34209558,125 5.99446106,125 L90.0055389,125 C91.6593341,125 93,123.658431 93,122.003983 L93,27.7070312 C93,23.1382146 71.7088776,3 66.5605469,3 L5.99392199,3 Z" id="Rectangle-19" fill="#DCDFE8" sketch:type="MSShapeGroup"></path>
                    <mask id="mask-2" sketch:name="Path" fill="white">
                        <use xlink:href="#path-1"></use>
                    </mask>
                    <use id="Path" fill="#FFFFFF" sketch:type="MSShapeGroup" xlink:href="#path-1"></use>
                    <path d="M64,4.00069463 L64,25.9993054 C64,28.2108263 65.7964077,30 68.0032996,30 L91.9967004,30 C94.2058537,30 96,28.2112002 96,25.9993054 L96,4.00069463 C96,1.78917374 94.2035923,0 91.9967004,0 L68.0032996,0 C65.7941463,0 64,1.78879982 64,4.00069463 Z M67,4.00069463 L67,25.9993054 C67,26.5519738 67.4512787,27 68.0032996,27 L91.9967004,27 C92.5508075,27 93,26.5525308 93,25.9993054 L93,4.00069463 C93,3.44802625 92.5487213,3 91.9967004,3 L68.0032996,3 C67.4491925,3 67,3.44746922 67,4.00069463 Z" id="Rectangle-19" fill="#DCDFE8" sketch:type="MSShapeGroup" mask="url(#mask-2)"></path>
                </g>
                <g id="Rectangle-19-+-Rectangle-19" transform="translate(0.000000, 10.000000)">
                    <path d="M5.99392199,4.4408921e-16 C2.68318192,0 0,2.69276836 0,6.00058135 L0,121.999419 C0,125.311805 2.68359671,128 5.99446106,128 L90.0055389,128 C93.3164982,128 96,125.314976 96,122.003983 L96,27.7070312 C96,24.3186538 91.0925454,18.3383295 83.7651047,11.4538351 C76.4794422,4.6085934 70.0816435,0 66.5605469,0 L5.99392199,4.4408921e-16 Z M5.99392199,3 C4.34042453,3 3,4.34925088 3,6.00058135 L3,121.999419 C3,123.656594 4.34209558,125 5.99446106,125 L90.0055389,125 C91.6593341,125 93,123.658431 93,122.003983 L93,27.7070312 C93,23.1382146 71.7088776,3 66.5605469,3 L5.99392199,3 Z" id="Rectangle-19" fill="#A7B0C5" sketch:type="MSShapeGroup"></path>
                    <mask id="mask-4" sketch:name="Path" fill="white">
                        <use xlink:href="#path-3"></use>
                    </mask>
                    <use id="Path" fill="#FFFFFF" sketch:type="MSShapeGroup" xlink:href="#path-3"></use>
                    <path d="M17,45.9410921 L17,44.9968516 C17,42.7884325 18.7880424,41 20.9952381,41 L20.9952381,43 L21.2483989,43 L21.2483989,41 L20.9952381,41 L20.9952381,43 C19.8932985,43 19,43.8923153 19,44.9968516 L19,45.9410921 L17,45.9410921 Z M17,53.9410921 L17,49.9410921 L19,49.9410921 L19,53.9410921 L17,53.9410921 Z M17,61.9410921 L17,57.9410921 L19,57.9410921 L19,61.9410921 L17,61.9410921 Z M17,69.9410921 L17,65.9410921 L19,65.9410921 L19,69.9410921 L17,69.9410921 Z M17,77.9410921 L17,73.9410921 L19,73.9410921 L19,77.9410921 L17,77.9410921 Z M17,85.9410921 L17,81.9410921 L19,81.9410921 L19,85.9410921 L17,85.9410921 Z M21.8781815,94 L20.9952381,94 C18.7900149,94 17,92.209799 17,90.0031484 L17,89.9410921 L19,89.9410921 L19,90.0031484 C19,91.1059791 19.8953339,92 20.9952381,92 L21.8781815,92 L21.8781815,94 Z M29.8781815,94 L25.8781815,94 L25.8781815,92 L29.8781815,92 L29.8781815,94 Z M37.8781815,94 L33.8781815,94 L33.8781815,92 L37.8781815,92 L37.8781815,94 Z M45.8781815,94 L41.8781815,94 L41.8781815,92 L45.8781815,92 L45.8781815,94 Z M53.8781815,94 L49.8781815,94 L49.8781815,92 L53.8781815,92 L53.8781815,94 Z M61.8781815,94 L57.8781815,94 L57.8781815,92 L61.8781815,92 L61.8781815,94 Z M69.8781815,94 L65.8781815,94 L65.8781815,92 L69.8781815,92 L69.8781815,94 Z M78,89.1854883 L78,90.0031484 C78,92.2115675 76.2119576,94 74.0047619,94 L73.8781815,94 L73.8781815,92 L74.0047619,92 C75.1067015,92 76,91.1076847 76,90.0031484 L76,89.1854883 L78,89.1854883 Z M78,81.1854883 L78,85.1854883 L76,85.1854883 L76,81.1854883 L78,81.1854883 Z M78,73.1854883 L78,77.1854883 L76,77.1854883 L76,73.1854883 L78,73.1854883 Z M78,65.1854883 L78,69.1854883 L76,69.1854883 L76,65.1854883 L78,65.1854883 Z M78,57.1854883 L78,61.1854883 L76,61.1854883 L76,57.1854883 L78,57.1854883 Z M78,49.1854883 L78,53.1854883 L76,53.1854883 L76,49.1854883 L78,49.1854883 Z M73.2483989,41 L74.0047619,41 C76.2099851,41 78,42.790201 78,44.9968516 L78,45.1854883 L76,45.1854883 L76,44.9968516 C76,43.8940209 75.1046661,43 74.0047619,43 L73.2483989,43 L73.2483989,41 Z M65.2483989,41 L69.2483989,41 L69.2483989,43 L65.2483989,43 L65.2483989,41 Z M57.2483989,41 L61.2483989,41 L61.2483989,43 L57.2483989,43 L57.2483989,41 Z M49.2483989,41 L53.2483989,41 L53.2483989,43 L49.2483989,43 L49.2483989,41 Z M41.2483989,41 L45.2483989,41 L45.2483989,43 L41.2483989,43 L41.2483989,41 Z M33.2483989,41 L37.2483989,41 L37.2483989,43 L33.2483989,43 L33.2483989,41 Z M25.2483989,41 L29.2483989,41 L29.2483989,43 L25.2483989,43 L25.2483989,41 Z" id="Rectangle-19" fill-opacity="0.4" fill="#A7B0C5" sketch:type="MSShapeGroup" mask="url(#mask-4)"></path>
                    <path d="M64,4.00069463 L64,25.9993054 C64,28.2108263 65.7964077,30 68.0032996,30 L91.9967004,30 C94.2058537,30 96,28.2112002 96,25.9993054 L96,4.00069463 C96,1.78917374 94.2035923,0 91.9967004,0 L68.0032996,0 C65.7941463,0 64,1.78879982 64,4.00069463 Z M67,4.00069463 L67,25.9993054 C67,26.5519738 67.4512787,27 68.0032996,27 L91.9967004,27 C92.5508075,27 93,26.5525308 93,25.9993054 L93,4.00069463 C93,3.44802625 92.5487213,3 91.9967004,3 L68.0032996,3 C67.4491925,3 67,3.44746922 67,4.00069463 Z" id="Rectangle-19" fill="#A7B0C5" sketch:type="MSShapeGroup" mask="url(#mask-4)"></path>
                </g>
                <g id="Rectangle-25">
                    <use stroke="#FFFFFF" stroke-width="3" fill="#A7B0C5" fill-rule="evenodd" sketch:type="MSShapeGroup" xlink:href="#path-5"></use>
                    <use stroke="none" fill="none" xlink:href="#path-5"></use>
                </g>
                <path d="M108,85 L108,88.9999809 C108,93.2868759 112.124665,95.0664737 115.237038,92.1197499 L127.614443,80.4011037 C129.672702,78.4523906 129.653981,75.2218367 127.578633,73.2954514 L115.240494,61.8429112 C112.106136,58.9335297 108,60.7279435 108,65.0000191 L108,69 L111,66 L89.991617,66 C87.2341939,66 85,68.238285 85,70.9940603 L85,83.0059397 C85,85.7625673 87.2394679,88 89.991617,88 L111,88 L108,85 Z M89.991617,85 C88.8978404,85 88,84.1072288 88,83.0059397 L88,70.9940603 C88,69.8945138 88.8916773,69 89.991617,69 L111,69 L111,65.0000191 C111,63.3473186 111.984773,62.9140886 113.199552,64.041674 L125.537691,75.4942142 C126.342952,76.2416756 126.351658,77.4653982 125.551887,78.2226028 L113.174483,89.9412491 C111.976786,91.0752008 111,90.6568457 111,88.9999809 L111,85 L89.991617,85 Z" id="Rectangle-24" fill="#FFFFFF" sketch:type="MSShapeGroup"></path>
            </g>
        </g>
    </g>
</svg>