<?xml version="1.0" encoding="UTF-8" standalone="no"?>
<svg width="147px" height="133px" viewBox="0 0 147 133" version="1.1" xmlns="http://www.w3.org/2000/svg" xmlns:xlink="http://www.w3.org/1999/xlink" xmlns:sketch="http://www.bohemiancoding.com/sketch/ns">
    <!-- Generator: Sketch 3.1.1 (8761) - http://www.bohemiancoding.com/sketch -->
    <title>Group</title>
    <desc>Created with Sketch.</desc>
    <defs>
        <circle id="path-1" cx="17" cy="17" r="17"></circle>
    </defs>
    <g id="Features" stroke="none" stroke-width="1" fill="none" fill-rule="evenodd" sketch:type="MSPage">
        <g sketch:type="MSArtboardGroup" transform="translate(-799.000000, -406.000000)" id="Group">
            <g sketch:type="MSLayerGroup" transform="translate(799.000000, 407.000000)">
                <g id="Group-2" transform="translate(0.000000, 75.000000)" fill="#A7B0C5" sketch:type="MSShapeGroup">
                    <path d="M0.452566964,3.43859722 L0.452566964,52.5920403 C0.452566964,54.5252268 2.02080176,56.0949505 3.95138164,56.0949505 L85.0486184,56.0949505 C86.9808179,56.0949505 88.547433,54.5231545 88.547433,52.5920403 L88.547433,3.43859722 C88.547433,1.50541074 86.9791982,-0.0643129389 85.0486184,-0.0643129389 L3.95138164,-0.0643129389 C2.01918214,-0.0643129389 0.452566964,1.50748298 0.452566964,3.43859722 Z M85.0486184,2.93568706 C85.3217064,2.93568706 85.547433,3.16162804 85.547433,3.43859722 L85.547433,52.5920403 C85.547433,52.8685134 85.3217424,53.0949505 85.0486184,53.0949505 L3.95138164,53.0949505 C3.67829364,53.0949505 3.45256696,52.8690095 3.45256696,52.5920403 L3.45256696,3.43859722 C3.45256696,3.16212408 3.67825763,2.93568706 3.95138164,2.93568706 L85.0486184,2.93568706 Z" id="Rectangle-22"></path>
                    <path d="M31.6768614,17.7240937 L30.2608925,17.7254366 L67.8305498,55.3171937 L69.2451791,53.903396 L31.6755218,16.311639 L30.9668642,15.6025645 L30.2595529,16.3129819 L1.45452182,45.2445039 L2.87183028,46.6556157 L31.6768614,17.7240937 Z" id="Path-44"></path>
                    <path d="M58.5739018,10.8312025 L57.1663799,10.8211243 L86.2730724,40.0716638 L87.6907676,38.6609405 L58.5840751,9.41040099 L57.8853061,8.70817864 L57.1765531,9.40032283 L40.3916577,25.7918843 L41.7890064,27.222764 L58.5739018,10.8312025 Z" id="Path-45"></path>
                    <path d="M20.9620624,12.6982429 C20.9620624,8.91161805 17.893963,5.84171385 14.1089764,5.84171385 C10.3239898,5.84171385 7.25589038,8.91161805 7.25589038,12.6982429 C7.25589038,16.4848677 10.3239898,19.5547719 14.1089764,19.5547719 C17.893963,19.5547719 20.9620624,16.4848677 20.9620624,12.6982429 Z M9.25589038,12.6982429 C9.25589038,10.0159244 11.4288227,7.84171385 14.1089764,7.84171385 C16.7891301,7.84171385 18.9620624,10.0159244 18.9620624,12.6982429 C18.9620624,15.3805614 16.7891301,17.5547719 14.1089764,17.5547719 C11.4288227,17.5547719 9.25589038,15.3805614 9.25589038,12.6982429 Z" id="Oval-13"></path>
                </g>
                <g id="Group-2" fill="#DCDFE8" sketch:type="MSShapeGroup">
                    <path d="M0.452566964,3.43859722 L0.452566964,52.5920403 C0.452566964,54.5252268 2.02080176,56.0949505 3.95138164,56.0949505 L85.0486184,56.0949505 C86.9808179,56.0949505 88.547433,54.5231545 88.547433,52.5920403 L88.547433,3.43859722 C88.547433,1.50541074 86.9791982,-0.0643129389 85.0486184,-0.0643129389 L3.95138164,-0.0643129389 C2.01918214,-0.0643129389 0.452566964,1.50748298 0.452566964,3.43859722 Z M85.0486184,2.93568706 C85.3217064,2.93568706 85.547433,3.16162804 85.547433,3.43859722 L85.547433,52.5920403 C85.547433,52.8685134 85.3217424,53.0949505 85.0486184,53.0949505 L3.95138164,53.0949505 C3.67829364,53.0949505 3.45256696,52.8690095 3.45256696,52.5920403 L3.45256696,3.43859722 C3.45256696,3.16212408 3.67825763,2.93568706 3.95138164,2.93568706 L85.0486184,2.93568706 Z" id="Rectangle-22"></path>
                    <path d="M31.6768614,17.7240937 L30.2608925,17.7254366 L67.8305498,55.3171937 L69.2451791,53.903396 L31.6755218,16.311639 L30.9668642,15.6025645 L30.2595529,16.3129819 L1.45452182,45.2445039 L2.87183028,46.6556157 L31.6768614,17.7240937 Z" id="Path-44"></path>
                    <path d="M58.5739018,10.8312025 L57.1663799,10.8211243 L86.2730724,40.0716638 L87.6907676,38.6609405 L58.5840751,9.41040099 L57.8853061,8.70817864 L57.1765531,9.40032283 L40.3916577,25.7918843 L41.7890064,27.222764 L58.5739018,10.8312025 Z" id="Path-45"></path>
                    <path d="M20.9620624,16.6982429 C20.9620624,12.9116181 17.893963,9.84171385 14.1089764,9.84171385 C10.3239898,9.84171385 7.25589038,12.9116181 7.25589038,16.6982429 C7.25589038,20.4848677 10.3239898,23.5547719 14.1089764,23.5547719 C17.893963,23.5547719 20.9620624,20.4848677 20.9620624,16.6982429 Z M9.25589038,16.6982429 C9.25589038,14.0159244 11.4288227,11.8417138 14.1089764,11.8417138 C16.7891301,11.8417138 18.9620624,14.0159244 18.9620624,16.6982429 C18.9620624,19.3805614 16.7891301,21.5547719 14.1089764,21.5547719 C11.4288227,21.5547719 9.25589038,19.3805614 9.25589038,16.6982429 Z" id="Oval-13"></path>
                </g>
                <g id="Oval-10-+-Path-41" transform="translate(107.000000, 85.000000)" fill="#A7B0C5" sketch:type="MSShapeGroup">
                    <path d="M40,20 C40,8.954305 31.045695,0 20,0 C8.954305,0 0,8.954305 0,20 C0,31.045695 8.954305,40 20,40 C31.045695,40 40,31.045695 40,20 Z M37,20 C37,10.6111593 29.3888407,3 20,3 C10.6111593,3 3,10.6111593 3,20 C3,29.3888407 10.6111593,37 20,37 C29.3888407,37 37,29.3888407 37,20 Z" id="Oval-10"></path>
                    <path d="M17.0686159,26.5802356 C17.6447468,27.1464674 18.565811,27.1547598 19.1520433,26.5989928 L29.9749094,16.3385683 C30.576109,15.7686117 30.6014365,14.819202 30.03148,14.2180023 C29.4615234,13.6168027 28.5121137,13.5914752 27.9109141,14.1614317 L17.088048,24.4218563 L19.1714753,24.4406135 L14.014768,19.372508 C13.4239276,18.7918194 12.4742158,18.800049 11.8935272,19.3908893 C11.3128387,19.9817296 11.3210683,20.9314414 11.9119086,21.51213 L17.0686159,26.5802356 Z" id="Path-41"></path>
                </g>
                <g id="Oval-10-+-Path-41-+-Path-42" transform="translate(110.000000, 11.000000)">
                    <g id="Oval-10">
                        <use stroke="none" fill="#FFFFFF" fill-rule="evenodd" sketch:type="MSShapeGroup" xlink:href="#path-1"></use>
                        <use stroke="#DCDFE8" stroke-width="3" fill="none" xlink:href="#path-1"></use>
                    </g>
                    <path d="M11.6200456,22.5104246 L22.4429117,12.25" id="Path-41" stroke="#DCDFE8" stroke-width="3" stroke-linecap="round" sketch:type="MSShapeGroup"></path>
                    <path d="M11.6200456,22.5104246 L22.4429117,12.25" id="Path-42" stroke="#DCDFE8" stroke-width="3" stroke-linecap="round" sketch:type="MSShapeGroup" transform="translate(16.963338, 17.250000) scale(-1, 1) translate(-16.963338, -17.250000) "></path>
                </g>
            </g>
        </g>
    </g>
</svg>