<?xml version="1.0" encoding="UTF-8" standalone="no"?>
<svg width="32px" height="32px" viewBox="0 0 32 32" version="1.1" xmlns="http://www.w3.org/2000/svg" xmlns:xlink="http://www.w3.org/1999/xlink" xmlns:sketch="http://www.bohemiancoding.com/sketch/ns">
    <!-- Generator: Sketch 3.1.1 (8761) - http://www.bohemiancoding.com/sketch -->
    <title>Oval 48 + fi-social-linkedin 3 + fi-social-github 3</title>
    <desc>Created with Sketch.</desc>
    <defs></defs>
    <g id="About" stroke="none" stroke-width="1" fill="none" fill-rule="evenodd" sketch:type="MSPage">
        <g sketch:type="MSArtboardGroup" transform="translate(-256.000000, -1029.000000)" id="Oval-48-+-fi-social-linkedin-3-+-fi-social-github-3">
            <g sketch:type="MSLayerGroup" transform="translate(256.000000, 1029.000000)">
                <g id="Oval-48-+-fi-social-linkedin-3" transform="translate(0.313725, 0.313725)" fill="#4183C4" sketch:type="MSShapeGroup">
                    <circle id="Oval-48" cx="15.6862745" cy="15.6862745" r="15.6862745"></circle>
                </g>
                <g id="fi-social-github-3" transform="translate(7.529412, 7.529412)" fill="#FFFFFF" sketch:type="MSShapeGroup">
                    <path d="M8.78386325,-0.00824767802 C3.93289492,-0.00824767802 0,3.88421053 0,8.68569659 C0,12.5266625 2.51636802,15.7851641 6.00734439,16.9340433 C6.44701056,17.0145139 6.60693012,16.7467988 6.60693012,16.5156409 C6.60693012,16.3096718 6.599272,15.7633189 6.59544294,15.0370774 C4.15182705,15.5629226 3.6362554,13.8714799 3.6362554,13.8714799 C3.23668175,12.8672693 2.6607461,12.6002229 2.6607461,12.6002229 C1.86317547,12.061226 2.72133534,12.0717028 2.72133534,12.0717028 C3.60292006,12.1334489 4.06691202,12.967356 4.06691202,12.967356 C4.85029261,14.2959009 6.12311714,13.9113808 6.62337255,13.6902539 C6.70288185,13.1274056 6.93037305,12.7451146 7.18106385,12.5273313 C5.23072097,12.3079876 3.18014681,11.56213 3.18014681,8.23095975 C3.18014681,7.28158514 3.52228457,6.50541176 4.08403017,5.8975356 C3.99415988,5.67863777 3.69211463,4.79479876 4.17029663,3.59732508 C4.17029663,3.59732508 4.90772851,3.36371517 6.58620814,4.48918885 C7.28647562,4.29547988 8.03809754,4.19873684 8.78521468,4.19583901 C9.53120563,4.19895975 10.2830528,4.29547988 10.9842212,4.48918885 C12.6615747,3.36371517 13.3978803,3.59732508 13.3978803,3.59732508 C13.8771885,4.79479876 13.5753685,5.67863777 13.485273,5.8975356 C14.04837,6.50541176 14.3880302,7.28158514 14.3880302,8.23095975 C14.3880302,11.5699319 12.3345279,12.3055356 10.3776531,12.5199752 C10.692537,12.788582 10.973635,13.3202229 10.973635,14.1313932 C10.973635,15.2929783 10.9630488,16.2303158 10.9630488,16.515418 C10.9630488,16.7483591 11.1209412,17.019195 11.566914,16.9329288 C15.0540613,15.7815975 17.5686275,12.525548 17.5686275,8.68569659 C17.5686275,3.88421053 13.6357325,-0.00824767802 8.78386325,-0.00824767802 L8.78386325,-0.00824767802 Z" id="Shape"></path>
                </g>
            </g>
        </g>
    </g>
</svg>