<?xml version="1.0" encoding="UTF-8" standalone="no"?>
<svg width="32px" height="32px" viewBox="0 0 32 32" version="1.1" xmlns="http://www.w3.org/2000/svg" xmlns:xlink="http://www.w3.org/1999/xlink" xmlns:sketch="http://www.bohemiancoding.com/sketch/ns">
    <!-- Generator: Sketch 3.1.1 (8761) - http://www.bohemiancoding.com/sketch -->
    <title>Oval 48 + fi-social-linkedin 3</title>
    <desc>Created with Sketch.</desc>
    <defs></defs>
    <g id="About" stroke="none" stroke-width="1" fill="none" fill-rule="evenodd" sketch:type="MSPage">
        <g sketch:type="MSArtboardGroup" transform="translate(-300.000000, -1030.000000)" id="Oval-48-+-fi-social-linkedin-3">
            <g sketch:type="MSLayerGroup" transform="translate(300.000000, 1030.000000)">
                <circle id="Oval-48" fill="#0976B4" sketch:type="MSShapeGroup" cx="16" cy="16" r="16"></circle>
                <g id="fi-social-linkedin-3" transform="translate(10.240000, 9.600000)" fill="#FFFFFF" sketch:type="MSShapeGroup">
                    <path d="M2.7071498,12.2444047 L0.15974902,12.2444047 L0.15974902,4.05214118 L2.7071498,4.05214118 L2.7071498,12.2444047 L2.7071498,12.2444047 Z M1.43344941,2.93199059 C0.617298824,2.93199059 -0.0424407843,2.27058196 -0.0424407843,1.45514667 C-0.0424407843,0.640903529 0.617298824,-0.020505098 1.43344941,-0.020505098 C2.24769255,-0.020505098 2.90910118,0.640903529 2.90910118,1.45514667 C2.90910118,2.27058196 2.24769255,2.93199059 1.43344941,2.93199059 L1.43344941,2.93199059 Z M12.243451,12.2444047 L9.70010353,12.2444047 L9.70010353,8.26069333 C9.70010353,7.31030588 9.68150588,6.0883451 8.37657098,6.0883451 C7.05136941,6.0883451 6.84941804,7.12337569 6.84941804,8.19178667 L6.84941804,12.2446431 L4.30416314,12.2446431 L4.30416314,4.05214118 L6.74689255,4.05214118 L6.74689255,5.17086118 L6.78170353,5.17086118 C7.12170667,4.52709647 7.95240157,3.84780549 9.19129098,3.84780549 C11.7677804,3.84780549 12.2436894,5.54400627 12.2436894,7.75068863 L12.2436894,12.2444047 L12.243451,12.2444047 Z" id="Shape"></path>
                </g>
            </g>
        </g>
    </g>
</svg>