<?xml version="1.0" encoding="UTF-8" standalone="no"?>
<svg width="32px" height="32px" viewBox="0 0 32 32" version="1.1" xmlns="http://www.w3.org/2000/svg" xmlns:xlink="http://www.w3.org/1999/xlink" xmlns:sketch="http://www.bohemiancoding.com/sketch/ns">
    <!-- Generator: Sketch 3.1.1 (8761) - http://www.bohemiancoding.com/sketch -->
    <title>Oval 48 + Shape</title>
    <desc>Created with Sketch.</desc>
    <defs></defs>
    <g id="About" stroke="none" stroke-width="1" fill="none" fill-rule="evenodd" sketch:type="MSPage">
        <g sketch:type="MSArtboardGroup" transform="translate(-212.000000, -1029.000000)" id="Oval-48-+-Shape">
            <g sketch:type="MSLayerGroup" transform="translate(212.000000, 1029.000000)">
                <circle id="Oval-48" fill="#55ACEE" sketch:type="MSShapeGroup" cx="16" cy="16" r="16"></circle>
                <path d="M23.7576526,11.8709105 C23.2210842,12.1087961 22.6445526,12.2695962 22.0392322,12.3417573 C22.6568635,11.9714816 23.1314983,11.3851011 23.3546108,10.6867857 C22.7765639,11.0295985 22.1360153,11.2788481 21.4547458,11.412564 C20.9090862,10.8314868 20.1314124,10.46784 19.2707817,10.46784 C17.6184616,10.46784 16.2786505,11.8072723 16.2786505,13.4599712 C16.2786505,13.6942582 16.3051664,13.9228632 16.3563043,14.1419983 C13.8694906,14.0171841 11.664882,12.8258621 10.1890821,11.0153936 C9.93149899,11.4574517 9.78395689,11.971671 9.78395689,12.5197927 C9.78395689,13.5578906 10.3121917,14.4734472 11.1150556,15.010205 C10.6247007,14.9944848 10.1633238,14.8598219 9.75990317,14.6359518 C9.75952437,14.6484522 9.75952437,14.6607631 9.75952437,14.6736423 C9.75952437,16.1229262 10.7908039,17.3322412 12.1594037,17.6074385 C11.9084496,17.6754328 11.6442375,17.7121763 11.371313,17.7121763 C11.178315,17.7121763 10.990999,17.6936152 10.8082287,17.6585763 C11.1889214,18.8470573 12.2938773,19.712423 13.6031951,19.7366661 C12.5791127,20.5389618 11.2891136,21.017574 9.88717954,21.017574 C9.64569535,21.017574 9.40762035,21.0035585 9.17333333,20.9757168 C10.4974243,21.8246047 12.0701966,22.3196947 13.7598284,22.3196947 C19.2633951,22.3196947 22.272951,17.7606626 22.272951,13.8071402 C22.272951,13.677591 22.2699206,13.5482313 22.2642386,13.4196291 C22.8492933,12.9980261 23.3566942,12.4709277 23.7576526,11.8709105 L23.7576526,11.8709105 Z" id="Shape" fill="#FFFFFF" sketch:type="MSShapeGroup"></path>
            </g>
        </g>
    </g>
</svg>