<?xml version="1.0" encoding="UTF-8" standalone="no"?>
<svg width="28px" height="28px" viewBox="0 0 28 28" version="1.1" xmlns="http://www.w3.org/2000/svg" xmlns:xlink="http://www.w3.org/1999/xlink" xmlns:sketch="http://www.bohemiancoding.com/sketch/ns">
    <!-- Generator: Sketch 3.2.2 (9983) - http://www.bohemiancoding.com/sketch -->
    <title>play-small</title>
    <desc>Created with Sketch.</desc>
    <defs></defs>
    <g id="Home-Copy" stroke="none" stroke-width="1" fill="none" fill-rule="evenodd" sketch:type="MSPage">
        <g id="Features" sketch:type="MSArtboardGroup" transform="translate(-957.000000, -951.000000)" fill="#C1D9EE">
            <g id="play-small" sketch:type="MSLayerGroup" transform="translate(957.000000, 951.000000)">
                <g id="Glyphicons-/-play-circle" sketch:type="MSShapeGroup">
                    <path d="M7.29497143,2.60575 C9.32965714,1.40575 11.5508,0.80575 13.9576571,0.80575 C16.3652571,0.80575 18.5856571,1.40575 20.6210857,2.60575 C22.6565143,3.80575 24.2685143,5.43325 25.4578286,7.48825 C26.6456571,9.544 27.2399429,11.78575 27.2399429,14.21575 C27.2399429,16.64575 26.6456571,18.88825 25.4578286,20.94325 C24.2685143,22.99825 22.6565143,24.62575 20.6210857,25.82575 C18.5856571,27.02575 16.3652571,27.62575 13.9576571,27.62575 C11.5508,27.62575 9.32965714,27.02575 7.29497143,25.82575 C5.2588,24.62575 3.6468,22.99825 2.45822857,20.94325 C1.26965714,18.88825 0.675371429,16.64575 0.675371429,14.21575 C0.675371429,11.78575 1.26965714,9.544 2.45822857,7.48825 C3.6468,5.43325 5.2588,3.80575 7.29497143,2.60575 C7.29497143,2.60575 5.2588,3.80575 7.29497143,2.60575 L7.29497143,2.60575 L7.29497143,2.60575 Z M20.4769714,7.6345 C18.6710857,5.812 16.4982286,4.90075 13.9576571,4.90075 C11.4170857,4.90075 9.24497143,5.812 7.43908571,7.6345 C5.63394286,9.457 4.73137143,11.65075 4.73137143,14.21575 C4.73137143,16.79575 5.63394286,18.99325 7.43908571,20.80825 C9.24497143,22.62325 11.4170857,23.53075 13.9576571,23.53075 C16.4982286,23.53075 18.6710857,22.62325 20.4769714,20.80825 C22.2813714,18.99325 23.1839429,16.79575 23.1839429,14.21575 C23.1839429,11.65075 22.2813714,9.457 20.4769714,7.6345 C20.4769714,7.6345 22.2813714,9.457 20.4769714,7.6345 L20.4769714,7.6345 L20.4769714,7.6345 Z M18.3486857,14.26075 L11.7290857,18.78325 L11.7290857,9.76075 L18.3486857,14.26075 L18.3486857,14.26075 Z" id="Fill-35"></path>
                </g>
            </g>
        </g>
    </g>
</svg>