<?xml version="1.0" encoding="UTF-8" standalone="no"?>
<svg width="14px" height="14px" viewBox="0 0 14 14" version="1.1" xmlns="http://www.w3.org/2000/svg" xmlns:xlink="http://www.w3.org/1999/xlink" xmlns:sketch="http://www.bohemiancoding.com/sketch/ns">
    <!-- Generator: Sketch 3.2.1 (9971) - http://www.bohemiancoding.com/sketch -->
    <title>Oval 41 + Line</title>
    <desc>Created with Sketch.</desc>
    <defs></defs>
    <g id="Project/Flows/Flow/Status" stroke="none" stroke-width="1" fill="none" fill-rule="evenodd" sketch:type="MSPage">
        <g id="Flow&lt;Status=Failure" sketch:type="MSArtboardGroup" transform="translate(-276.000000, -1359.000000)" fill="#616674">
            <g id="Rectangle-44-+-Passing-4" sketch:type="MSLayerGroup" transform="translate(270.000000, 1354.000000)">
                <g id="Oval-41-+-Line" transform="translate(6.000000, 5.000000)" sketch:type="MSShapeGroup">
                    <path d="M14,7 C14,3.13400675 10.8659932,0 7,0 C3.13400675,0 0,3.13400675 0,7 C0,10.8659932 3.13400675,14 7,14 C10.8659932,14 14,10.8659932 14,7 Z M2,7 C2,4.23857625 4.23857625,2 7,2 C9.76142375,2 12,4.23857625 12,7 C12,9.76142375 9.76142375,12 7,12 C4.23857625,12 2,9.76142375 2,7 Z" id="Oval-41"></path>
                    <path d="M10.308503,11.7227165 L11.0156097,12.4298233 L12.4298233,11.0156097 L11.7227165,10.308503 L3.70710678,2.29289322 L3,1.58578644 L1.58578644,3 L2.29289322,3.70710678 L10.308503,11.7227165 Z" id="Line"></path>
                </g>
            </g>
        </g>
    </g>
</svg>