<?xml version="1.0" encoding="UTF-8" standalone="no"?>
<svg width="20px" height="16px" viewBox="0 0 20 16" version="1.1" xmlns="http://www.w3.org/2000/svg" xmlns:xlink="http://www.w3.org/1999/xlink" xmlns:sketch="http://www.bohemiancoding.com/sketch/ns">
    <!-- Generator: Sketch 3.2.2 (9983) - http://www.bohemiancoding.com/sketch -->
    <title>social-twitter</title>
    <desc>Created with Sketch.</desc>
    <defs></defs>
    <g id="Home" stroke="none" stroke-width="1" fill="none" fill-rule="evenodd" sketch:type="MSPage">
        <g id="Homepage-3" sketch:type="MSArtboardGroup" transform="translate(-702.000000, -2676.000000)" fill="#FFFFFF">
            <g id="social-twitter" sketch:type="MSLayerGroup" transform="translate(702.000000, 2676.000000)">
                <path d="M9.71114123,4.25625052 L9.75449454,4.94829564 L9.03193939,4.86355542 C6.40183864,4.53871792 4.10411326,3.43709507 2.15321435,1.58693363 L1.19944155,0.668914589 L0.9537728,1.34683634 C0.433533091,2.85803691 0.76590846,4.4539777 1.84974119,5.52735381 C2.42778531,6.12053534 2.29772538,6.20527556 1.30059927,5.85219131 C0.9537728,5.73920435 0.650299636,5.65446413 0.62139743,5.69683424 C0.520239709,5.79569783 0.867066182,7.08092448 1.14163714,7.5893658 C1.51736582,8.29553429 2.28327428,8.98757941 3.12143825,9.39715713 L3.8295423,9.72199464 L2.99137833,9.73611801 C2.18211656,9.73611801 2.15321435,9.75024138 2.23992097,10.0468321 C2.52894303,10.9648512 3.67058017,11.9393637 4.94227724,12.3630648 L5.83824562,12.6596556 L5.05788606,13.1116034 C3.90179782,13.7612784 2.54339413,14.128486 1.18499045,14.1567328 C0.534690812,14.1708561 1.95399252e-14,14.2273496 1.95399252e-14,14.2697197 C1.95399252e-14,14.4109534 1.76303457,15.2018621 2.78906288,15.5125763 C5.86714783,16.4305953 9.5232769,16.0351409 12.2689865,14.4674469 C14.2198854,13.3517007 16.1707843,11.1343316 17.0812038,8.98757941 C17.5725413,7.84358645 18.0638788,5.75332772 18.0638788,4.75056847 C18.0638788,4.10089345 18.1072321,4.01615324 18.9164939,3.2393679 C19.3933803,2.78742006 19.8413645,2.29310212 19.9280711,2.15186842 C20.0725821,1.88352439 20.058131,1.88352439 19.3211247,2.12362168 C18.092781,2.54732277 17.9193678,2.4908293 18.5263141,1.85527765 C18.9742983,1.40332982 19.5089891,0.584174371 19.5089891,0.344077084 C19.5089891,0.301706974 19.2922225,0.372323823 19.0465538,0.499434152 C18.7864339,0.64066785 18.2083898,0.852518397 17.7748567,0.979628725 L16.9944972,1.21972601 L16.2863931,0.753654808 C15.8962133,0.499434152 15.3470714,0.216966755 15.0580494,0.132226537 C14.3210431,-0.0655006408 13.1938571,-0.0372539012 12.5291063,0.188720016 C10.7227184,0.824271657 9.58108131,2.46258256 9.71114123,4.25625052 Z" id="Path-2" sketch:type="MSShapeGroup"></path>
            </g>
        </g>
    </g>
</svg>