<?xml version="1.0" encoding="UTF-8" standalone="no"?>
<svg width="20px" height="20px" viewBox="0 0 20 20" version="1.1" xmlns="http://www.w3.org/2000/svg" xmlns:xlink="http://www.w3.org/1999/xlink" xmlns:sketch="http://www.bohemiancoding.com/sketch/ns">
    <!-- Generator: Sketch 3.2.2 (9983) - http://www.bohemiancoding.com/sketch -->
    <title>social-dribbble</title>
    <desc>Created with Sketch.</desc>
    <defs></defs>
    <g id="Home" stroke="none" stroke-width="1" fill="none" fill-rule="evenodd" sketch:type="MSPage">
        <g id="Homepage-3" sketch:type="MSArtboardGroup" transform="translate(-772.000000, -2674.000000)" fill="#FFFFFF">
            <g id="social-dribbble" sketch:type="MSLayerGroup" transform="translate(772.000000, 2674.000000)">
                <path d="M9.56175,0 C4.28951389,0 0,4.28951389 0,9.56148611 C0,14.8339861 4.28951389,19.1232361 9.56175,19.1232361 C14.8339861,19.1232361 19.1235,14.83425 19.1235,9.56175 C19.1235,4.28951389 14.83425,0 9.56175,0 L9.56175,0 Z M15.8837361,4.40931944 C17.0213611,5.79895833 17.7098472,7.569125 17.7280556,9.49709722 C17.458625,9.43956944 14.7585139,8.89252778 12.0409861,9.234 C11.9837222,9.09413889 11.9251389,8.95375 11.8652361,8.81256944 C11.6952917,8.41436111 11.5132083,8.01826389 11.3232083,7.62981944 C14.3428889,6.39640278 15.7116806,4.64259722 15.8837361,4.40931944 L15.8837361,4.40931944 Z M9.56175,1.40679167 C11.6369722,1.40679167 13.5335417,2.18526389 14.9759583,3.46459722 C14.8289722,3.674125 13.5995139,5.32659722 10.6954167,6.41513889 C9.35723611,3.95622222 7.87365278,1.93615278 7.64802778,1.63373611 C8.26209722,1.48595833 8.90281944,1.40679167 9.56175,1.40679167 L9.56175,1.40679167 Z M6.08976389,2.18315278 C6.30483333,2.47818056 7.76440278,4.50088889 9.117625,6.90623611 C5.29730556,7.92088889 1.93245833,7.90584722 1.56723611,7.90136111 C2.09659722,5.36723611 3.80448611,3.260875 6.08976389,2.18315278 L6.08976389,2.18315278 Z M1.39438889,9.57388889 C1.39438889,9.4905 1.39597222,9.407375 1.39861111,9.32451389 C1.75591667,9.33190278 5.71398611,9.38283333 9.79238889,8.16234722 C10.0261944,8.61966667 10.2494444,9.084375 10.4544861,9.54855556 C10.3465556,9.57890278 10.2391528,9.61109722 10.1325417,9.64566667 C5.92034722,11.0070694 3.678875,14.7186667 3.49388889,15.0353333 C2.18975,13.5871111 1.39438889,11.6718056 1.39438889,9.57388889 L1.39438889,9.57388889 Z M9.56175,17.7417778 C7.673625,17.7417778 5.93327778,17.097625 4.54838889,16.0177917 C4.69563889,15.7172222 6.34943056,12.5223194 10.955875,10.9173472 C10.9738194,10.9112778 10.9917639,10.9054722 11.0099722,10.8991389 C12.1565694,13.8787083 12.6305139,16.3761528 12.7521667,17.0931389 C11.7715556,17.5098194 10.6930417,17.7417778 9.56175,17.7417778 L9.56175,17.7417778 Z M14.1249167,16.34475 C14.0415278,15.8478472 13.6069028,13.4570139 12.5384167,10.5215139 C15.0976111,10.1119583 17.3462083,10.7825 17.6256667,10.870375 C17.2617639,13.14325 15.9573611,15.1057917 14.1249167,16.34475 L14.1249167,16.34475 Z" id="Shape-7" sketch:type="MSShapeGroup"></path>
            </g>
        </g>
    </g>
</svg>