<?xml version="1.0" encoding="UTF-8" standalone="no"?>
<svg width="19px" height="18px" viewBox="0 0 19 18" version="1.1" xmlns="http://www.w3.org/2000/svg" xmlns:xlink="http://www.w3.org/1999/xlink" xmlns:sketch="http://www.bohemiancoding.com/sketch/ns">
    <!-- Generator: Sketch 3.2.2 (9983) - http://www.bohemiancoding.com/sketch -->
    <title>social-linkedin</title>
    <desc>Created with Sketch.</desc>
    <defs></defs>
    <g id="Home" stroke="none" stroke-width="1" fill="none" fill-rule="evenodd" sketch:type="MSPage">
        <g id="Homepage-3" sketch:type="MSArtboardGroup" transform="translate(-737.000000, -2674.000000)" fill="#FFFFFF">
            <g id="social-linkedin" sketch:type="MSLayerGroup" transform="translate(737.000000, 2674.000000)">
                <path d="M4.73151834,5.96743662 L0.864570708,5.96743662 L0.864570708,17.9451683 L4.73151834,17.9451683 L4.73151834,5.96743662 Z" id="Path-6" sketch:type="MSShapeGroup"></path>
                <path d="M4.98620526,2.262241 C4.96110725,1.087832 4.14646431,0.193331892 2.82360588,0.193331892 C1.50074746,0.193331892 0.63590849,1.087832 0.63590849,2.262241 C0.63590849,3.41232393 1.4751861,4.33258106 2.77340986,4.33258106 L2.79812175,4.33258106 C4.14646431,4.33258106 4.98620526,3.41232393 4.98620526,2.262241 Z" id="Path-4" sketch:type="MSShapeGroup"></path>
                <path d="M18.6772108,11.077503 C18.6772108,7.3984619 16.76953,5.68617628 14.2249002,5.68617628 C12.1718054,5.68617628 11.2526003,6.84874023 10.7393652,7.66429983 L10.7393652,5.96775461 L6.87195424,5.96775461 C6.92292251,7.09168302 6.87195424,17.9454863 6.87195424,17.9454863 L10.7393652,17.9454863 L10.7393652,11.2561327 C10.7393652,10.8981578 10.7644632,10.5410573 10.8667087,10.284759 C11.1461847,9.56960414 11.7825159,8.82916919 12.8508419,8.82916919 C14.2506933,8.82916919 14.8102632,9.92749958 14.8102632,11.5370751 L14.8102632,17.9451683 L18.6770563,17.9451683 L18.6772108,11.077503 Z" id="Path-5" sketch:type="MSShapeGroup"></path>
            </g>
        </g>
    </g>
</svg>