<?xml version="1.0" encoding="UTF-8" standalone="no"?>
<svg width="74px" height="74px" viewBox="0 0 74 74" version="1.1" xmlns="http://www.w3.org/2000/svg" xmlns:xlink="http://www.w3.org/1999/xlink" xmlns:sketch="http://www.bohemiancoding.com/sketch/ns">
    <!-- Generator: Sketch 3.2.2 (9983) - http://www.bohemiancoding.com/sketch -->
    <title>Group</title>
    <desc>Created with Sketch.</desc>
    <defs>
        <path id="path-1" d="M10.2024194,70.4010081 C7.25403226,69.6332661 4.09435484,66.4727823 3.3266129,63.5252016 C-1.10887097,45.7510081 -1.10887097,27.9760081 3.3266129,10.2018145 C4.09435484,7.25342742 7.25403226,4.09375 10.2024194,3.32600806 C27.9766129,-1.10866935 45.7508065,-1.10866935 63.5258065,3.32600806 C66.4733871,4.09375 69.633871,7.25342742 70.4016129,10.2018145 C74.8362903,27.9760081 74.8362903,45.7510081 70.4016129,63.5252016 C69.633871,66.4727823 66.4733871,69.6332661 63.5258065,70.4010081 C45.7508065,74.8356855 27.9766129,74.8356855 10.2024194,70.4010081 Z"></path>
    </defs>
    <g id="Home-Copy" stroke="none" stroke-width="1" fill="none" fill-rule="evenodd" sketch:type="MSPage">
        <g id="Homepage" sketch:type="MSArtboardGroup" transform="translate(-709.000000, -1473.000000)">
            <g id="Group" sketch:type="MSLayerGroup" transform="translate(709.000000, 1473.000000)">
                <g id="Imported-Layers-2">
                    <use fill="#2B2C30" fill-rule="evenodd" sketch:type="MSShapeGroup" xlink:href="#path-1"></use>
                    <use fill="none" xlink:href="#path-1"></use>
                </g>
                <rect id="Rectangle-88" stroke="#FFFFFF" stroke-width="2" sketch:type="MSShapeGroup" x="15" y="19" width="45" height="37" rx="3"></rect>
                <circle id="Oval-21" fill="#FFFFFF" sketch:type="MSShapeGroup" cx="24" cy="37" r="3"></circle>
                <circle id="Oval-20" fill="#FFFFFF" sketch:type="MSShapeGroup" cx="24" cy="27" r="3"></circle>
                <circle id="Oval-22" fill="#FFFFFF" sketch:type="MSShapeGroup" cx="24" cy="47" r="3"></circle>
                <rect id="Rectangle-94" fill="#FFFFFF" sketch:type="MSShapeGroup" x="29" y="26" width="21" height="2" rx="2"></rect>
                <rect id="Rectangle-95" fill="#FFFFFF" sketch:type="MSShapeGroup" x="29" y="36" width="21" height="2" rx="2"></rect>
                <rect id="Rectangle-96" fill="#FFFFFF" sketch:type="MSShapeGroup" x="29" y="46" width="21" height="2" rx="2"></rect>
                <g id="Oval-23-+-Shape" transform="translate(50.000000, 11.000000)" sketch:type="MSShapeGroup">
                    <circle id="Oval-23" fill="#FFFFFF" cx="8" cy="8" r="8"></circle>
                    <path d="M8,4 C5.9375,4 4.25,5.8 4.25,8 L3,8 L4.875,10.6666667 L6.75,8 L5.5,8 C5.5,6.52 6.6125,5.33333333 8,5.33333333 L8,4 L8,4 Z M11.125,5.33333333 L9.25,8 L10.5,8 C10.5,9.48 9.3875,10.6666667 8,10.6666667 L8,12 C10.0625,12 11.75,10.2 11.75,8 L13,8 L11.125,5.33333333 L11.125,5.33333333 Z" id="Shape" fill="#2B2C30"></path>
                </g>
            </g>
        </g>
    </g>
</svg>