<?xml version="1.0" encoding="UTF-8" standalone="no"?>
<svg width="74px" height="74px" viewBox="0 0 74 74" version="1.1" xmlns="http://www.w3.org/2000/svg" xmlns:xlink="http://www.w3.org/1999/xlink" xmlns:sketch="http://www.bohemiancoding.com/sketch/ns">
    <!-- Generator: Sketch 3.3.2 (12043) - http://www.bohemiancoding.com/sketch -->
    <title>Group Copy</title>
    <desc>Created with Sketch.</desc>
    <defs>
        <path id="path-1" d="M10.2024194,70.4010081 C7.25403226,69.6332661 4.09435484,66.4727823 3.3266129,63.5252016 C-1.10887097,45.7510081 -1.10887097,27.9760081 3.3266129,10.2018145 C4.09435484,7.25342742 7.25403226,4.09375 10.2024194,3.32600806 C27.9766129,-1.10866935 45.7508065,-1.10866935 63.5258065,3.32600806 C66.4733871,4.09375 69.633871,7.25342742 70.4016129,10.2018145 C74.8362903,27.9760081 74.8362903,45.7510081 70.4016129,63.5252016 C69.633871,66.4727823 66.4733871,69.6332661 63.5258065,70.4010081 C45.7508065,74.8356855 27.9766129,74.8356855 10.2024194,70.4010081 Z"></path>
    </defs>
    <g id="Home-Copy" stroke="none" stroke-width="1" fill="none" fill-rule="evenodd" sketch:type="MSPage">
        <g id="Homepage" sketch:type="MSArtboardGroup" transform="translate(-854.000000, -1420.000000)">
            <g id="Group-Copy" sketch:type="MSLayerGroup" transform="translate(854.000000, 1420.000000)">
                <g id="Imported-Layers-2">
                    <use fill="#C25757" fill-rule="evenodd" sketch:type="MSShapeGroup" xlink:href="#path-1"></use>
                    <use fill="none" xlink:href="#path-1"></use>
                </g>
                <g id="Path-20-+-Imported-Layers" transform="translate(17.000000, 14.000000)" sketch:type="MSShapeGroup">
                    <path d="M20.3555556,18.006239 L13.0355882,18 L8,22.9466876 L20.3429556,35.1749901 L20.3429556,35.1999561 L20.3555556,35.1874731 L20.3681556,35.1999561 L20.3681556,35.1749901 L32.7111111,22.9466876 L27.6755229,18 L20.3555556,18.006239 Z" id="Path-20" fill-opacity="0.99000001" fill="#954242"></path>
                    <path d="M19.0942405,3.89638407 L37.1662402,14.2467881 L36.2328885,12.643087 L36.2328885,33.3442845 L37.1662139,31.7405985 L19.0942141,42.091392 L20.9608966,42.091392 L2.88889677,31.7405985 L3.82222222,33.3442845 L3.82222222,12.643087 L2.88887043,14.2467881 L20.9608702,3.89638407 L19.0942405,3.89638407 L19.0942405,3.89638407 Z M20.9608702,0.688981784 L20.0275553,0.154442932 L19.0942405,0.688981784 L1.02224068,11.0393858 L0.0888888889,11.5739458 L0.0888888889,12.643087 L0.0888888889,33.3442845 L0.0888888889,34.4134055 L1.02221434,34.9479706 L19.0942141,45.2987641 L20.0275553,45.8333382 L20.9608966,45.2987641 L39.0328963,34.9479706 L39.9662218,34.4134055 L39.9662218,33.3442845 L39.9662218,12.643087 L39.9662218,11.5739458 L39.03287,11.0393858 L20.9608702,0.688981784 L20.9608702,0.688981784 Z" id="Shape" fill-opacity="0.99000001" fill="#954242"></path>
                    <path d="M20.3555556,15.006239 L13.0355882,15 L8,19.9466876 L20.3429556,32.1749901 L20.3429556,32.1999561 L20.3555556,32.1874731 L20.3681556,32.1999561 L20.3681556,32.1749901 L32.7111111,19.9466876 L27.6755229,15 L20.3555556,15.006239 Z" id="Path-20-Copy-2" fill="#FFFFFF"></path>
                    <path d="M20.2914731,2 L0,13.4239065 L0,36.2721495 L20.2914731,47.696486 L40.5829462,36.2721495 L40.5829462,13.4239065 L20.2914731,2 L20.2914731,2 Z M36.1743441,33.7902991 L20.2914731,42.7323551 L4.40860215,33.7902991 L4.40860215,15.9061869 L20.2914731,6.96413084 L36.1743441,15.9061869 L36.1743441,33.7902991 L36.1743441,33.7902991 Z" id="Imported-Layers" fill="#964242"></path>
                    <path d="M20.2914731,0 L0,11.4239065 L0,34.2721495 L20.2914731,45.696486 L40.5829462,34.2721495 L40.5829462,11.4239065 L20.2914731,0 L20.2914731,0 Z M36.1743441,31.7902991 L20.2914731,40.7323551 L4.40860215,31.7902991 L4.40860215,13.9061869 L20.2914731,4.96413084 L36.1743441,13.9061869 L36.1743441,31.7902991 L36.1743441,31.7902991 Z" id="Imported-Layers-Copy" fill="#FFFFFF"></path>
                </g>
            </g>
        </g>
    </g>
</svg>