<?xml version="1.0" encoding="UTF-8" standalone="no"?>
<svg width="74px" height="74px" viewBox="0 0 74 74" version="1.1" xmlns="http://www.w3.org/2000/svg" xmlns:xlink="http://www.w3.org/1999/xlink" xmlns:sketch="http://www.bohemiancoding.com/sketch/ns">
    <!-- Generator: Sketch 3.3.2 (12043) - http://www.bohemiancoding.com/sketch -->
    <title>Group</title>
    <desc>Created with Sketch.</desc>
    <defs>
        <path id="path-1" d="M10.2024194,70.4010081 C7.25403226,69.6332661 4.09435484,66.4727823 3.3266129,63.5252016 C-1.10887097,45.7510081 -1.10887097,27.9760081 3.3266129,10.2018145 C4.09435484,7.25342742 7.25403226,4.09375 10.2024194,3.32600806 C27.9766129,-1.10866935 45.7508065,-1.10866935 63.5258065,3.32600806 C66.4733871,4.09375 69.633871,7.25342742 70.4016129,10.2018145 C74.8362903,27.9760081 74.8362903,45.7510081 70.4016129,63.5252016 C69.633871,66.4727823 66.4733871,69.6332661 63.5258065,70.4010081 C45.7508065,74.8356855 27.9766129,74.8356855 10.2024194,70.4010081 Z"></path>
        <filter x="-50%" y="-50%" width="200%" height="200%" filterUnits="objectBoundingBox" id="filter-2">
            <feOffset dx="0" dy="2" in="SourceAlpha" result="shadowOffsetOuter1"></feOffset>
            <feGaussianBlur stdDeviation="0" in="shadowOffsetOuter1" result="shadowBlurOuter1"></feGaussianBlur>
            <feColorMatrix values="0 0 0 0 0   0 0 0 0 0   0 0 0 0 0  0 0 0 0.14 0" in="shadowBlurOuter1" type="matrix" result="shadowMatrixOuter1"></feColorMatrix>
            <feMerge>
                <feMergeNode in="shadowMatrixOuter1"></feMergeNode>
                <feMergeNode in="SourceGraphic"></feMergeNode>
            </feMerge>
        </filter>
    </defs>
    <g id="Home-Copy" stroke="none" stroke-width="1" fill="none" fill-rule="evenodd" sketch:type="MSPage">
        <g id="Homepage" sketch:type="MSArtboardGroup" transform="translate(-709.000000, -1257.000000)">
            <g id="Group" sketch:type="MSLayerGroup" transform="translate(709.000000, 1257.000000)">
                <g id="Imported-Layers-2">
                    <use fill="#578AC2" fill-rule="evenodd" sketch:type="MSShapeGroup" xlink:href="#path-1"></use>
                    <use fill="none" xlink:href="#path-1"></use>
                </g>
                <rect id="Rectangle-88" fill="#EDEFF6" filter="url(#filter-2)" sketch:type="MSShapeGroup" x="15" y="19" width="45" height="37" rx="3"></rect>
                <path d="M23.5,29 L23.5,34" id="Line" stroke-opacity="0.3" stroke="#A7B0C5" stroke-linecap="square" sketch:type="MSShapeGroup"></path>
                <path d="M23.5,39 L23.5,44" id="Line" stroke-opacity="0.3" stroke="#A7B0C5" stroke-linecap="square" sketch:type="MSShapeGroup"></path>
                <circle id="Oval-21" fill="#C48D59" sketch:type="MSShapeGroup" cx="23.5" cy="36.5" r="2.5"></circle>
                <circle id="Oval-20" fill="#C48D59" sketch:type="MSShapeGroup" cx="23.5" cy="26.5" r="2.5"></circle>
                <circle id="Oval-22" fill="#C48D59" sketch:type="MSShapeGroup" cx="23.5" cy="46.5" r="2.5"></circle>
                <rect id="Rectangle-94" fill-opacity="0.6" fill="#A7B0C5" sketch:type="MSShapeGroup" x="29" y="25" width="21" height="3" rx="2"></rect>
                <rect id="Rectangle-95" fill-opacity="0.6" fill="#A7B0C5" sketch:type="MSShapeGroup" x="29" y="35" width="21" height="3" rx="2"></rect>
                <rect id="Rectangle-96" fill-opacity="0.6" fill="#A7B0C5" sketch:type="MSShapeGroup" x="29" y="45" width="21" height="3" rx="2"></rect>
            </g>
        </g>
    </g>
</svg>