<?xml version="1.0" encoding="UTF-8" standalone="no"?>
<svg width="88px" height="88px" viewBox="0 0 88 88" version="1.1" xmlns="http://www.w3.org/2000/svg" xmlns:xlink="http://www.w3.org/1999/xlink" xmlns:sketch="http://www.bohemiancoding.com/sketch/ns">
    <!-- Generator: Sketch 3.2.2 (9983) - http://www.bohemiancoding.com/sketch -->
    <title>squirc-email</title>
    <desc>Created with Sketch.</desc>
    <defs></defs>
    <g id="Home-Copy" stroke="none" stroke-width="1" fill="none" fill-rule="evenodd" sketch:type="MSPage">
        <g id="Features" sketch:type="MSArtboardGroup" transform="translate(-527.000000, -4989.000000)">
            <g id="squirc-email" sketch:type="MSLayerGroup" transform="translate(527.000000, 4989.000000)">
                <path d="M75.383957,83.5425296 C54.290957,88.8050134 33.198914,88.8050134 12.106871,83.5425296 C8.60811828,82.6314758 4.85863441,78.8810349 3.94758065,75.3832392 C-1.31586022,54.2911962 -1.31586022,33.1981962 3.94758065,12.1061532 C4.85863441,8.60740054 8.60811828,4.85791667 12.106871,3.9468629 C33.198914,-1.31562097 54.290957,-1.31562097 75.383957,3.9468629 C78.8817527,4.85791667 82.6321935,8.60740054 83.5432473,12.1061532 C88.8057312,33.1981962 88.8057312,54.2911962 83.5432473,75.3832392 C82.6321935,78.8810349 78.8817527,82.6314758 75.383957,83.5425296" id="Imported-Layers-5" fill="#41444F" sketch:type="MSShapeGroup"></path>
                <path d="M65,43 L65,60 L24,60 L24,39.75 L44.5,49.875 L60.6668831,41.890137 C61.9522715,42.5975521 63.4291374,43 65,43 Z M58.5312518,40.2574305 L44.5,47.1875 L24,37.0625 L24,32 L56.2230164,32 C56.0770614,32.6432227 56,33.312612 56,34 C56,36.4315361 56.9642612,38.6378569 58.5312518,40.2574305 Z" id="Shape" fill="#FFFFFF" sketch:type="MSShapeGroup"></path>
                <path d="M65,41 C68.8659932,41 72,37.8659932 72,34 C72,30.1340068 68.8659932,27 65,27 C61.1340068,27 58,30.1340068 58,34 C58,37.8659932 61.1340068,41 65,41 Z" id="Oval-20" fill="#FFFFFF" sketch:type="MSShapeGroup"></path>
            </g>
        </g>
    </g>
</svg>