<?xml version="1.0" encoding="UTF-8" standalone="no"?>
<svg width="88px" height="88px" viewBox="0 0 88 88" version="1.1" xmlns="http://www.w3.org/2000/svg" xmlns:xlink="http://www.w3.org/1999/xlink" xmlns:sketch="http://www.bohemiancoding.com/sketch/ns">
    <!-- Generator: Sketch 3.2.2 (9983) - http://www.bohemiancoding.com/sketch -->
    <title>squirc-github</title>
    <desc>Created with Sketch.</desc>
    <defs></defs>
    <g id="Home-Copy" stroke="none" stroke-width="1" fill="none" fill-rule="evenodd" sketch:type="MSPage">
        <g id="Features" sketch:type="MSArtboardGroup" transform="translate(-226.000000, -4989.000000)">
            <g id="squirc-github" sketch:type="MSLayerGroup" transform="translate(226.000000, 4989.000000)">
                <path d="M75.383957,83.5425296 C54.290957,88.8050134 33.198914,88.8050134 12.106871,83.5425296 C8.60811828,82.6314758 4.85863441,78.8810349 3.94758065,75.3832392 C-1.31586022,54.2911962 -1.31586022,33.1981962 3.94758065,12.1061532 C4.85863441,8.60740054 8.60811828,4.85791667 12.106871,3.9468629 C33.198914,-1.31562097 54.290957,-1.31562097 75.383957,3.9468629 C78.8817527,4.85791667 82.6321935,8.60740054 83.5432473,12.1061532 C88.8057312,33.1981962 88.8057312,54.2911962 83.5432473,75.3832392 C82.6321935,78.8810349 78.8817527,82.6314758 75.383957,83.5425296" id="Imported-Layers-5" fill="#41444F" sketch:type="MSShapeGroup"></path>
                <g id="fi-social-github-4" transform="translate(22.000000, 22.000000)" fill="#FFFFFF" sketch:type="MSShapeGroup">
                    <path d="M0,22.5972104 C0,32.5806095 6.54051784,41.0500731 15.6142276,44.0362282 C16.7570034,44.2453866 17.1726647,43.549544 17.1726647,42.9487208 C17.1726647,42.4133682 17.1527598,40.9932933 17.1428073,39.1056539 C10.7913861,40.4724253 9.45131757,36.0760448 9.45131757,36.0760448 C8.41274985,33.4659112 6.91578385,32.7718068 6.91578385,32.7718068 C4.84274647,31.3708516 7.07326678,31.3980828 7.07326678,31.3980828 C9.36467269,31.5585727 10.5706758,33.7260555 10.5706758,33.7260555 C12.6068306,37.1791956 15.915143,36.1797549 17.2154017,35.6050041 C17.4220614,34.1420546 18.0133542,33.1484077 18.6649472,32.5823476 C13.595636,32.0122319 8.26580481,30.0736065 8.26580481,21.415263 C8.26580481,18.9476583 9.15508574,16.9302365 10.6151691,15.350251 C10.3815792,14.7812941 9.5965063,12.4840288 10.839392,9.37156755 C10.839392,9.37156755 12.7561174,8.76437109 17.1188043,11.6896907 C18.9389323,11.1862043 20.8925403,10.9347508 22.8344395,10.9272188 C24.7734115,10.9353302 26.7276048,11.1862043 28.5500746,11.6896907 C32.9098344,8.76437109 34.8236325,9.37156755 34.8236325,9.37156755 C36.0694454,12.4840288 35.284958,14.7812941 35.0507826,15.350251 C36.5143786,16.9302365 37.3972197,18.9476583 37.3972197,21.415263 C37.3972197,30.093885 32.0597778,32.0058586 26.973489,32.5632279 C27.7919319,33.2613879 28.522559,34.6432234 28.522559,36.7516088 C28.522559,39.770789 28.4950434,42.2071068 28.4950434,42.9481414 C28.4950434,43.5535997 28.9054357,44.2575537 30.0646037,44.0333313 C39.1283611,41.0408029 45.6641954,32.5777125 45.6641954,22.5972104 C45.6641954,10.1172373 35.4418555,0 22.8309268,0 C10.22234,0 0,10.1172373 0,22.5972104 Z" id="Shape"></path>
                </g>
            </g>
        </g>
    </g>
</svg>