<?xml version="1.0" encoding="UTF-8" standalone="no"?>
<svg width="74px" height="74px" viewBox="0 0 74 74" version="1.1" xmlns="http://www.w3.org/2000/svg" xmlns:xlink="http://www.w3.org/1999/xlink" xmlns:sketch="http://www.bohemiancoding.com/sketch/ns">
    <!-- Generator: Sketch 3.2.2 (9983) - http://www.bohemiancoding.com/sketch -->
    <title>Group</title>
    <desc>Created with Sketch.</desc>
    <defs></defs>
    <g id="Home-Copy" stroke="none" stroke-width="1" fill="none" fill-rule="evenodd" sketch:type="MSPage">
        <g id="Homepage" sketch:type="MSArtboardGroup" transform="translate(-710.000000, -1366.000000)">
            <g id="Group" sketch:type="MSLayerGroup" transform="translate(710.000000, 1366.000000)">
                <path d="M63.5258065,70.4010081 C45.7508065,74.8356855 27.9766129,74.8356855 10.2024194,70.4010081 C7.25403226,69.6332661 4.09435484,66.4727823 3.3266129,63.5252016 C-1.10887097,45.7510081 -1.10887097,27.9760081 3.3266129,10.2018145 C4.09435484,7.25342742 7.25403226,4.09375 10.2024194,3.32600806 C27.9766129,-1.10866935 45.7508065,-1.10866935 63.5258065,3.32600806 C66.4733871,4.09375 69.633871,7.25342742 70.4016129,10.2018145 C74.8362903,27.9760081 74.8362903,45.7510081 70.4016129,63.5252016 C69.633871,66.4727823 66.4733871,69.6332661 63.5258065,70.4010081" id="Imported-Layers-2" fill="#2B2C30" sketch:type="MSShapeGroup"></path>
                <path d="M44.706521,60.1073358 C44.3163202,60.504662 44,60.3837162 44,59.8353676 L44,48.0330439 C44,47.4855139 44.318299,47.355365 44.7122542,47.7436429 L53.1915085,56.1007014 C53.5848756,56.4883996 53.4564058,56.8026911 52.8941107,56.8026911 L47.9519026,56.8026911 L44.706521,60.1073358 Z" id="Path-60" fill="#FFFFFF" sketch:type="MSShapeGroup"></path>
                <path d="M51.8496568,52 L55.9947301,52 C57.1055269,52 58,51.103789 58,49.9982567 L58,22.0017433 C58,20.8892617 57.1022101,20 55.9947301,20 L19.0052699,20 C17.8944731,20 17,20.896211 17,22.0017433 L17,49.9982567 C17,51.1107383 17.8977899,52 19.0052699,52 L42.0555556,52 L42.0555556,49.7142857 L20.2714797,49.7142857 C19.7226733,49.7142857 19.2777778,49.261096 19.2777778,48.7055589 L19.2777778,23.2944411 C19.2777778,22.7373367 19.7254219,22.2857143 20.2714797,22.2857143 L54.7285203,22.2857143 C55.2773267,22.2857143 55.7222222,22.738904 55.7222222,23.2944411 L55.7222222,48.7055589 C55.7222222,49.2626633 55.2745781,49.7142857 54.7285203,49.7142857 L49.7528003,49.7142857 L51.8496568,52 Z" id="Rectangle-103" fill="#FFFFFF" sketch:type="MSShapeGroup"></path>
            </g>
        </g>
    </g>
</svg>